<svg xmlns="http://www.w3.org/2000/svg" width="52" height="52" viewBox="0 0 52 52">
  <path id="Tracé_104" data-name="Tracé 104" d="M21.836,37.61l-2.105,7.37-2.105-7.37a11.654,11.654,0,0,0-8-8L2.25,27.5l7.37-2.105a11.654,11.654,0,0,0,8-8l2.108-7.373,2.105,7.37a11.654,11.654,0,0,0,8,8L37.212,27.5l-7.37,2.105a11.654,11.654,0,0,0-8,8ZM43.709,18.993l-.671,2.68-.671-2.68a8.74,8.74,0,0,0-6.358-6.36l-2.683-.671,2.683-.671a8.74,8.74,0,0,0,6.358-6.36l.671-2.68.671,2.68a8.74,8.74,0,0,0,6.36,6.36l2.68.671-2.68.671a8.74,8.74,0,0,0-6.36,6.36ZM40.174,49.686l-1.02,3.064-1.02-3.064A5.827,5.827,0,0,0,34.448,46l-3.064-1.02,3.064-1.02a5.827,5.827,0,0,0,3.685-3.685l1.02-3.064,1.02,3.064a5.827,5.827,0,0,0,3.685,3.685l3.064,1.02L43.859,46a5.827,5.827,0,0,0-3.685,3.685Z" transform="translate(-1.5 -1.5)" stroke="#000" stroke-linecap="round" stroke-linejoin="round" stroke-width="1.5"/>
</svg>
